<svg width="18" height="18" viewBox="0 0 18 18" fill="none" xmlns="http://www.w3.org/2000/svg">
<path d="M15.3175 13.2851L11.25 7.69219V2.25H12.375V1.125H5.62502V2.25H6.75002V7.69219L2.68258 13.2851C2.43723 13.6223 2.28996 14.0208 2.25705 14.4365C2.22414 14.8522 2.30688 15.2689 2.49611 15.6405C2.68534 16.0121 2.97369 16.3241 3.32925 16.542C3.6848 16.7598 4.0937 16.8751 4.5107 16.875H13.4888C13.9058 16.8751 14.3147 16.7598 14.6702 16.542C15.0258 16.3241 15.3141 16.0121 15.5034 15.6405C15.6926 15.2689 15.7753 14.8522 15.7424 14.4365C15.7095 14.0208 15.5622 13.6223 15.3169 13.2851H15.3175ZM7.87502 8.05781V2.25H10.125V8.05781L11.6286 10.125H6.37145L7.87502 8.05781ZM13.4893 15.75H4.51127C4.3019 15.7498 4.09666 15.6917 3.91821 15.5822C3.73977 15.4727 3.59504 15.316 3.50002 15.1295C3.40499 14.9429 3.36336 14.7337 3.37971 14.525C3.39607 14.3163 3.46978 14.1161 3.5927 13.9466L5.55358 11.25H12.4465L14.4079 13.9466C14.5308 14.1161 14.6045 14.3163 14.6209 14.525C14.6372 14.7337 14.5956 14.9429 14.5006 15.1295C14.4056 15.316 14.2608 15.4727 14.0824 15.5822C13.9039 15.6917 13.6987 15.7498 13.4893 15.75Z" fill="white"/>
</svg>
