<svg width="18" height="18" viewBox="0 0 18 18" fill="none" xmlns="http://www.w3.org/2000/svg">
<path d="M2.25 11.25V12.375H4.82963L1.125 16.0796L1.92038 16.875L5.625 13.1704V15.75H6.75V11.25H2.25Z" fill="white"/>
<path d="M11.2499 7.68938V2.25H12.3749V1.125H5.62492V2.25H6.74992V7.68938L5.38867 9.5625H6.78198L7.87492 8.06062V2.25H10.1249V8.06062L14.4055 13.9444C14.4938 14.0646 14.5575 14.2012 14.5928 14.3461C14.6282 14.491 14.6345 14.6415 14.6115 14.7889C14.5885 14.9363 14.5366 15.0778 14.4588 15.205C14.381 15.3323 14.2788 15.443 14.158 15.5306C13.9634 15.6721 13.7293 15.7489 13.4887 15.75H8.43742V16.875H13.4887C13.9057 16.8756 14.3148 16.7606 14.6706 16.5429C15.0263 16.3253 15.3148 16.0133 15.5041 15.6417C15.6934 15.2701 15.7761 14.8533 15.7431 14.4375C15.71 14.0218 15.5625 13.6233 15.3168 13.2863L11.2499 7.68938Z" fill="white"/>
</svg>
