<svg width="18" height="18" viewBox="0 0 18 18" fill="none" xmlns="http://www.w3.org/2000/svg">
<path d="M14.4563 5.23125L10.5188 1.29375C10.4692 1.23885 10.4084 1.19534 10.3404 1.1662C10.2724 1.13707 10.1989 1.12302 10.125 1.125H4.5C4.20163 1.125 3.91548 1.24353 3.7045 1.45451C3.49353 1.66548 3.375 1.95163 3.375 2.25V15.75C3.375 16.0484 3.49353 16.3345 3.7045 16.5455C3.91548 16.7565 4.20163 16.875 4.5 16.875H13.5C13.7984 16.875 14.0845 16.7565 14.2955 16.5455C14.5065 16.3345 14.625 16.0484 14.625 15.75V5.625C14.627 5.55108 14.6129 5.4776 14.5838 5.40962C14.5547 5.34165 14.5112 5.2808 14.4563 5.23125V5.23125ZM10.125 2.475L13.275 5.625H10.125V2.475ZM13.5 15.75H4.5V2.25H9V5.625C9 5.92337 9.11853 6.20952 9.32951 6.4205C9.54048 6.63147 9.82663 6.75 10.125 6.75H13.5V15.75Z" fill="white"/>
<path d="M11.8125 10.6875H9.5625V8.4375H8.4375V10.6875H6.1875V11.8125H8.4375V14.0625H9.5625V11.8125H11.8125V10.6875Z" fill="white"/>
</svg>
