<svg width="18" height="18" viewBox="0 0 18 18" fill="none" xmlns="http://www.w3.org/2000/svg">
<path d="M9 4.5C9.19891 4.5 9.38968 4.57902 9.53033 4.71967C9.67098 4.86032 9.75 5.05109 9.75 5.25V8.25H12.75C12.9489 8.25 13.1397 8.32902 13.2803 8.46967C13.421 8.61032 13.5 8.80109 13.5 9C13.5 9.19891 13.421 9.38968 13.2803 9.53033C13.1397 9.67098 12.9489 9.75 12.75 9.75H9.75V12.75C9.75 12.9489 9.67098 13.1397 9.53033 13.2803C9.38968 13.421 9.19891 13.5 9 13.5C8.80109 13.5 8.61032 13.421 8.46967 13.2803C8.32902 13.1397 8.25 12.9489 8.25 12.75V9.75H5.25C5.05109 9.75 4.86032 9.67098 4.71967 9.53033C4.57902 9.38968 4.5 9.19891 4.5 9C4.5 8.80109 4.57902 8.61032 4.71967 8.46967C4.86032 8.32902 5.05109 8.25 5.25 8.25H8.25V5.25C8.25 5.05109 8.32902 4.86032 8.46967 4.71967C8.61032 4.57902 8.80109 4.5 9 4.5V4.5Z" fill="white"/>
<path fill-rule="evenodd" clip-rule="evenodd" d="M3.75 16.5C3.15326 16.5 2.58097 16.2629 2.15901 15.841C1.73705 15.419 1.5 14.8467 1.5 14.25V3.75C1.5 3.15326 1.73705 2.58097 2.15901 2.15901C2.58097 1.73705 3.15326 1.5 3.75 1.5H14.25C14.8467 1.5 15.419 1.73705 15.841 2.15901C16.2629 2.58097 16.5 3.15326 16.5 3.75V14.25C16.5 14.8467 16.2629 15.419 15.841 15.841C15.419 16.2629 14.8467 16.5 14.25 16.5H3.75ZM3 14.25C3 14.4489 3.07902 14.6397 3.21967 14.7803C3.36032 14.921 3.55109 15 3.75 15H14.25C14.4489 15 14.6397 14.921 14.7803 14.7803C14.921 14.6397 15 14.4489 15 14.25V3.75C15 3.55109 14.921 3.36032 14.7803 3.21967C14.6397 3.07902 14.4489 3 14.25 3H3.75C3.55109 3 3.36032 3.07902 3.21967 3.21967C3.07902 3.36032 3 3.55109 3 3.75V14.25Z" fill="white"/>
</svg>
