<svg width="18" height="18" viewBox="0 0 18 18" fill="none" xmlns="http://www.w3.org/2000/svg">
<path d="M6 5.25H4.5C4.10218 5.25 3.72064 5.40804 3.43934 5.68934C3.15804 5.97064 3 6.35218 3 6.75V14.25C3 14.6478 3.15804 15.0294 3.43934 15.3107C3.72064 15.592 4.10218 15.75 4.5 15.75H10.5C10.8978 15.75 11.2794 15.592 11.5607 15.3107C11.842 15.0294 12 14.6478 12 14.25V12.75M6 5.25V11.25C6 11.6478 6.15804 12.0294 6.43934 12.3107C6.72064 12.592 7.10218 12.75 7.5 12.75H12L6 5.25ZM6 5.25V3.75C6 3.35218 6.15804 2.97064 6.43934 2.68934C6.72064 2.40804 7.10218 2.25 7.5 2.25H10.9395C11.1384 2.25004 11.3291 2.32909 11.4698 2.46975L14.7803 5.78025C14.9209 5.92087 15 6.1116 15 6.3105V11.25C15 11.6478 14.842 12.0294 14.5607 12.3107C14.2794 12.592 13.8978 12.75 13.5 12.75H12L6 5.25Z" stroke="white" stroke-width="2" stroke-linecap="round" stroke-linejoin="round"/>
</svg>
