<svg width="18" height="18" viewBox="0 0 18 18" fill="none" xmlns="http://www.w3.org/2000/svg">
<path d="M11.25 9.00001C11.25 9.14835 11.294 9.29335 11.3764 9.41669C11.4588 9.54003 11.5759 9.63616 11.713 9.69292C11.85 9.74969 12.0008 9.76454 12.1463 9.7356C12.2918 9.70666 12.4254 9.63523 12.5303 9.53034C12.6352 9.42545 12.7067 9.29182 12.7356 9.14633C12.7645 9.00084 12.7497 8.85004 12.6929 8.713C12.6361 8.57596 12.54 8.45882 12.4167 8.37641C12.2933 8.294 12.1483 8.25001 12 8.25001C11.8011 8.25001 11.6103 8.32903 11.4697 8.46968C11.329 8.61033 11.25 8.8011 11.25 9.00001ZM16.2825 8.46751L12.5325 4.71751C12.4624 4.648 12.3793 4.59301 12.2879 4.55568C12.1966 4.51836 12.0987 4.49944 12 4.50001H3.75C3.15326 4.50001 2.58097 4.73707 2.15901 5.15902C1.73705 5.58098 1.5 6.15328 1.5 6.75001V11.25C1.5 11.8467 1.73705 12.419 2.15901 12.841C2.58097 13.263 3.15326 13.5 3.75 13.5H12C12.0987 13.5006 12.1966 13.4817 12.2879 13.4443C12.3793 13.407 12.4624 13.352 12.5325 13.2825L16.2825 9.53251C16.3528 9.46279 16.4086 9.37984 16.4467 9.28845C16.4847 9.19705 16.5043 9.09902 16.5043 9.00001C16.5043 8.901 16.4847 8.80297 16.4467 8.71158C16.4086 8.62019 16.3528 8.53723 16.2825 8.46751V8.46751ZM11.6925 12H3.75C3.55109 12 3.36032 11.921 3.21967 11.7803C3.07902 11.6397 3 11.4489 3 11.25V6.75001C3 6.5511 3.07902 6.36033 3.21967 6.21968C3.36032 6.07903 3.55109 6.00001 3.75 6.00001H11.6925L14.6925 9.00001L11.6925 12Z" fill="white"/>
</svg>
